# xmcd CD database file
#
# Track frame offsets:
#	150
#	4353
#	16805
#	30124
#	42526
#	58901
#	70185
#	81792
#	95438
#	104981
#	117662
#	128669
#	140966
#	148635
#	159714
#	175276
#	183205
#	194960
#	210654
#	220319
#
# Disc length: 2979 seconds
#
# Revision: 0
# Processed by: cddbd v1.5.2PL0 Copyright (c) Steve Scherf et al.
# Submitted via: CDex 1.51
#
DISCID=370ba114
DTITLE=Hank Williams - 20 Gloden greats
DYEAR=1900
DGENRE=Country
TTITLE0=Happy Rovin Cowboy
TTITLE1=Love sick Blues
TTITLE2=A Mansion on the Hill
TTITLE3=You're gonna change (or I'm gonna leave)
TTITLE4=A Tramp on the Street
TTITLE5=I'm a long gomne Daddy
TTITLE6=When God comes and gathers all his jewels
TTITLE7=Lost highway
TTITLE8=I'll have a new body (I'll have a new life)
TTITLE9=I can't get you off my mind
TTITLE10=The Prodigal Son
TTITLE11=Pan American
TTITLE12=There'll be no more teardrops tonight
TTITLE13=Mind Your Business
TTITLE14=Wedding Blues
TTITLE15=I've just told Momma goodbye
TTITLE16=I'm so lonesome I could cry
TTITLE17=Thy burdens are greater than mine
TTITLE18=I saw the light
TTITLE19=Sally Goodin
EXTD=
EXTT0=
EXTT1=
EXTT2=
EXTT3=
EXTT4=
EXTT5=
EXTT6=
EXTT7=
EXTT8=
EXTT9=
EXTT10=
EXTT11=
EXTT12=
EXTT13=
EXTT14=
EXTT15=
EXTT16=
EXTT17=
EXTT18=
EXTT19=
PLAYORDER=
